<svg id="Capa_1" enable-background="new 0 0 512 512" height="512" viewBox="0 0 512 512" width="512" xmlns="http://www.w3.org/2000/svg"><g><g><path d="m370.312 512h-228.624c-28.294 0-51.312-23.019-51.312-51.312v-69.188l84.624-165.625-84.625-165.625v-8.938c0-28.293 23.019-51.312 51.313-51.312h228.625c28.294 0 51.312 23.019 51.312 51.312v8.938l-97.875 168.25 97.875 163v69.188c0 28.293-23.019 51.312-51.313 51.312z" fill="#453d81"/></g><path d="m370.312 0h-114.312v512h114.312c28.294 0 51.312-23.019 51.312-51.312v-69.188l-97.875-163 97.875-168.25v-8.938c.001-28.293-23.018-51.312-51.312-51.312z" fill="#2e2654"/><g><path d="m421.625 391.5h-331.25v-331.25h331.25z" fill="#f4f4fb"/></g><path d="m256 60.25h165.625v331.25h-165.625z" fill="#e5e5fe"/><g><path d="m286.125 331.25h-60.25c-8.284 0-15-6.716-15-15v-45.25h-45.25c-8.284 0-15-6.716-15-15v-60.25c0-8.284 6.716-15 15-15h45.25v-45.25c0-8.284 6.716-15 15-15h60.25c8.284 0 15 6.716 15 15v45.25h45.25c8.284 0 15 6.716 15 15v60.25c0 8.284-6.716 15-15 15h-45.25v45.25c0 8.284-6.716 15-15 15z" fill="#72ca76"/></g><path d="m346.375 180.75h-45.25v-45.25c0-8.284-6.716-15-15-15h-30.125v210.75h30.125c8.284 0 15-6.716 15-15v-45.25h45.25c8.284 0 15-6.716 15-15v-60.25c0-8.284-6.716-15-15-15z" fill="#569984"/><g><path d="m286.125 451.75h-60.25c-8.284 0-15-6.716-15-15s6.716-15 15-15h60.25c8.284 0 15 6.716 15 15s-6.716 15-15 15z" fill="#d0cef1"/></g><path d="m286.125 421.75h-30.125v30h30.125c8.284 0 15-6.716 15-15s-6.716-15-15-15z" fill="#b7b4e7"/></g></svg>